<?xml version="1.0" standalone="no"?>
<!DOCTYPE svg PUBLIC "-//W3C//DTD SVG 20010904//EN"
        "http://www.w3.org/TR/2001/REC-SVG-20010904/DTD/svg10.dtd">
<svg version="1.0" xmlns="http://www.w3.org/2000/svg"
     width="900.000000pt" height="900.000000pt" viewBox="0 0 900.000000 900.000000"
     preserveAspectRatio="xMidYMid meet">
    <metadata>
        Created by potrace 1.10, written by Peter Selinger 2001-2011
    </metadata>
    <g transform="translate(0.000000,900.000000) scale(0.100000,-0.100000)"
       fill="#000000" stroke="none">
        <path d="M2870 8160 c-185 -53 -300 -119 -426 -244 -39 -39 -85 -92 -103 -118
-18 -27 -39 -48 -47 -48 -8 0 -43 9 -77 20 -209 68 -358 102 -523 121 -100 12
-303 8 -336 -6 -17 -7 -18 -79 -17 -1314 0 -718 4 -1560 9 -1871 5 -311 13
-1352 16 -2313 4 -961 11 -1750 15 -1753 8 -5 51 18 199 106 52 31 102 59 110
63 8 4 29 16 45 27 17 11 37 23 45 27 8 4 69 39 135 78 66 39 127 74 135 78 8
4 29 16 45 27 17 11 37 23 45 27 8 4 69 39 135 78 66 39 127 74 135 78 8 4 29
16 45 27 17 11 37 23 45 27 8 4 69 39 135 78 66 39 127 74 135 78 8 4 29 16
45 27 17 11 37 23 45 27 8 4 69 39 135 78 66 39 127 74 135 78 8 4 29 16 45
27 17 11 37 23 45 27 8 4 69 39 135 78 66 39 127 74 135 78 8 4 29 16 45 27
17 11 37 23 45 27 8 4 69 39 135 78 66 39 127 74 135 78 8 4 29 16 45 27 17
11 37 23 45 27 8 4 58 32 110 63 52 31 102 59 110 63 8 4 29 16 45 27 17 11
39 24 50 30 11 6 29 16 40 23 11 7 63 37 115 67 52 30 104 60 115 67 11 7 27
16 35 20 8 4 69 39 135 78 66 39 127 74 135 78 8 4 29 16 45 27 17 11 37 23
45 27 8 4 69 39 135 78 66 39 127 74 135 78 8 4 29 16 45 27 17 11 37 23 45
27 8 4 69 39 135 78 66 39 127 74 135 78 8 4 29 16 45 27 17 11 37 23 45 27 8
4 69 39 135 78 66 39 127 74 135 78 8 4 29 16 45 27 17 11 37 23 45 27 8 4 69
39 135 78 66 39 127 74 135 78 8 4 29 16 45 27 17 11 37 23 45 27 8 4 69 39
135 78 66 39 127 74 135 78 8 4 29 16 45 27 17 11 37 23 45 27 8 4 69 39 135
78 66 39 127 74 135 78 8 4 29 16 45 27 17 11 37 23 45 27 17 8 257 148 280
163 8 6 24 15 35 20 11 6 43 24 70 40 28 17 76 45 108 62 33 19 60 42 63 54 4
17 -34 106 -79 179 -61 99 -185 245 -339 398 -162 160 -179 180 -166 195 29
35 68 151 89 262 48 256 -33 542 -210 748 -51 59 -157 149 -211 178 -19 10
-42 24 -50 30 -26 20 -152 66 -233 85 -101 25 -291 26 -385 3 -228 -56 -423
-184 -545 -357 l-41 -59 -44 7 c-25 4 -59 13 -76 20 -28 12 -71 24 -211 61
-222 57 -503 79 -612 48 -19 -5 -26 3 -58 67 -87 177 -180 297 -398 513 -153
151 -179 181 -169 195 33 46 68 145 88 251 30 161 7 384 -52 503 -8 16 -14 33
-14 38 0 14 -85 153 -116 190 -138 164 -290 262 -499 319 -97 27 -340 27 -435
0z m-498 -444 c18 -8 53 -22 78 -31 76 -29 117 -47 265 -116 50 -23 99 -45
110 -50 11 -5 27 -13 35 -18 22 -12 75 -41 151 -81 147 -77 175 -93 204 -114
17 -13 37 -26 45 -29 8 -4 27 -15 42 -25 14 -9 48 -30 75 -46 26 -16 71 -47
100 -68 29 -21 55 -38 58 -38 9 0 246 -180 279 -212 17 -15 33 -28 38 -28 14
0 8 -67 -7 -80 -8 -7 -15 -18 -15 -26 0 -12 -153 -173 -195 -204 -32 -24 -116
-74 -160 -94 -22 -10 -47 -22 -56 -26 -8 -5 -51 -18 -95 -31 -68 -20 -102 -23
-239 -23 -155 -1 -163 0 -265 34 -58 18 -127 46 -153 62 -26 15 -50 28 -53 28
-13 0 -125 93 -183 153 -84 86 -153 197 -196 317 -29 80 -55 223 -55 301 0
129 45 312 102 409 5 8 11 23 14 33 8 21 32 22 76 3z m2122 -3238 c3 -871 9
-1666 13 -1767 6 -183 6 -183 -15 -172 -11 6 -30 32 -43 58 -58 120 -357 464
-494 569 -38 28 -43 51 -21 92 54 105 76 191 82 329 11 222 -30 382 -143 561
-38 60 -209 236 -246 253 -12 5 -31 15 -42 22 -84 52 -145 78 -255 109 -106
29 -332 29 -440 0 -82 -22 -196 -68 -221 -89 -8 -7 -18 -13 -22 -13 -9 0 -67
-40 -121 -85 -44 -36 -148 -150 -187 -206 l-16 -23 -74 23 c-41 13 -92 29
-114 36 -180 58 -417 98 -584 99 -122 1 -144 11 -89 39 18 9 56 30 83 47 28
16 59 34 70 40 11 5 27 14 35 20 23 15 263 155 280 163 8 4 29 16 45 27 17 11
37 23 45 27 8 4 69 39 135 78 66 39 127 74 135 78 8 4 29 16 45 27 17 11 37
23 45 27 8 4 69 39 135 78 66 39 127 74 135 78 8 4 29 16 45 27 17 11 37 23
45 27 8 4 69 39 135 78 66 39 127 74 135 78 8 4 29 16 45 27 17 11 37 23 45
27 8 4 69 39 135 78 66 39 127 74 135 78 8 4 29 16 45 27 17 11 37 23 45 27 8
4 69 39 135 78 66 39 127 74 135 78 8 4 29 16 45 27 17 11 37 23 45 27 8 4 69
39 135 78 66 39 127 74 135 78 8 4 29 16 45 27 17 11 37 23 45 27 8 4 71 40
140 80 69 40 132 77 140 82 8 5 18 7 21 5 3 -2 9 -716 13 -1586z m1056 1425
c52 -17 216 -88 345 -148 39 -18 77 -35 85 -39 8 -3 22 -10 30 -15 21 -12 74
-40 151 -81 137 -72 175 -93 204 -114 33 -23 62 -42 85 -52 8 -4 59 -37 113
-73 54 -36 106 -70 115 -76 34 -21 288 -214 315 -240 36 -34 31 -56 -24 -132
-119 -161 -286 -276 -494 -339 -48 -15 -94 -19 -235 -19 -181 0 -185 1 -325
52 -205 76 -393 251 -488 453 -83 178 -108 356 -77 540 12 73 41 174 60 208 5
9 18 38 30 64 l22 48 36 -16 c20 -9 44 -18 52 -21z m-3143 -1819 c21 -9 52
-22 68 -29 17 -7 71 -30 120 -50 50 -21 140 -61 200 -90 61 -29 117 -56 125
-59 8 -3 29 -15 45 -25 17 -11 66 -38 110 -61 94 -48 100 -52 187 -107 37 -24
70 -43 74 -43 3 0 23 -13 44 -30 21 -16 40 -30 43 -30 9 0 272 -184 287 -201
3 -3 42 -33 88 -68 46 -35 86 -70 89 -78 6 -15 -25 -77 -61 -122 -36 -46 -190
-191 -202 -191 -6 0 -16 -6 -22 -13 -22 -25 -166 -89 -277 -122 -85 -26 -345
-26 -430 0 -162 48 -262 100 -371 193 -133 113 -247 291 -284 442 -5 19 -13
53 -19 75 -6 22 -11 99 -11 171 0 160 17 239 83 384 35 78 46 83 114 54z"/>
    </g>
</svg>
